<svg id="svg" version="1.1" xmlns="http://www.w3.org/2000/svg" xmlns:xlink="http://www.w3.org/1999/xlink" width="400" height="400" viewBox="0, 0, 400,400"><g id="svgg"><path id="path0" d="M269.882 106.311 C 269.203 107.064,267.463 109.551,263.107 116.000 C 261.546 118.310,260.149 120.290,260.001 120.400 C 259.853 120.510,258.593 122.310,257.200 124.400 C 255.807 126.490,254.562 128.290,254.434 128.400 C 254.305 128.510,254.020 128.909,253.800 129.287 C 252.832 130.948,243.798 143.813,243.515 143.933 C 243.342 144.007,243.200 144.265,243.200 144.508 C 243.200 144.750,242.867 145.320,242.461 145.774 C 242.054 146.228,240.198 148.850,238.336 151.600 C 236.473 154.350,234.001 157.950,232.841 159.600 C 231.681 161.250,229.491 164.400,227.975 166.600 C 226.459 168.800,222.603 174.380,219.407 179.000 C 216.210 183.620,212.146 189.525,210.375 192.121 C 208.604 194.718,206.899 197.148,206.586 197.521 C 206.024 198.193,200.672 205.936,193.539 216.400 C 191.514 219.370,189.744 221.890,189.605 222.000 C 189.466 222.110,187.032 225.620,184.196 229.800 C 181.360 233.980,178.838 237.605,178.592 237.856 C 178.346 238.107,177.437 239.410,176.572 240.753 C 174.682 243.687,174.236 243.751,171.420 241.500 C 170.250 240.565,166.734 237.820,163.607 235.400 C 160.479 232.980,156.886 230.190,155.623 229.200 C 154.360 228.210,152.730 226.950,152.000 226.400 C 151.270 225.850,150.472 225.220,150.227 225.000 C 149.857 224.669,147.430 222.759,145.800 221.517 C 145.580 221.349,144.859 220.780,144.197 220.252 C 142.812 219.147,133.575 212.001,131.829 210.684 C 130.320 209.545,128.257 207.877,128.000 207.587 C 127.890 207.463,127.170 206.923,126.400 206.386 C 125.630 205.850,124.730 205.189,124.400 204.917 C 122.112 203.031,116.569 198.803,116.403 198.818 C 116.291 198.827,114.580 200.914,112.600 203.454 C 110.620 205.995,108.814 208.282,108.587 208.537 C 108.360 208.791,107.732 209.630,107.192 210.400 C 106.653 211.170,105.909 212.160,105.539 212.600 C 104.724 213.571,95.799 224.959,94.400 226.814 C 93.850 227.543,92.603 229.126,91.629 230.331 L 89.857 232.521 91.029 233.487 C 91.673 234.017,92.830 234.933,93.600 235.521 C 94.834 236.463,100.370 240.818,102.000 242.129 C 102.330 242.394,103.230 243.050,104.000 243.586 C 104.770 244.123,105.490 244.665,105.600 244.791 C 105.710 244.917,106.609 245.646,107.599 246.410 C 108.588 247.175,109.668 248.020,109.999 248.289 C 110.329 248.559,112.490 250.237,114.800 252.019 C 117.110 253.801,119.364 255.561,119.808 255.929 C 120.252 256.298,121.272 257.092,122.073 257.694 C 122.875 258.296,123.771 259.022,124.065 259.307 C 124.359 259.593,125.230 260.268,126.000 260.807 C 126.770 261.347,127.670 262.012,128.000 262.285 C 129.071 263.170,137.343 269.614,139.439 271.196 C 140.560 272.042,141.730 272.981,142.039 273.281 C 142.348 273.581,143.230 274.268,144.000 274.807 C 144.770 275.347,145.670 276.014,146.000 276.289 C 146.750 276.915,154.583 283.025,157.800 285.493 C 162.339 288.976,163.400 289.800,163.600 290.000 C 163.710 290.110,164.610 290.823,165.600 291.585 C 166.590 292.347,167.460 293.112,167.533 293.285 C 167.607 293.458,167.907 293.600,168.200 293.600 C 168.493 293.600,168.793 293.735,168.867 293.900 C 169.009 294.220,170.616 295.570,172.794 297.200 C 173.529 297.750,175.869 299.570,177.994 301.244 C 180.119 302.918,182.325 304.595,182.897 304.969 L 183.937 305.651 185.496 303.525 C 186.354 302.356,187.843 300.230,188.806 298.800 C 189.768 297.370,190.791 295.962,191.078 295.671 C 191.365 295.381,191.600 294.989,191.600 294.800 C 191.600 294.611,191.836 294.219,192.124 293.929 C 192.412 293.638,194.167 291.175,196.024 288.456 C 197.881 285.737,200.120 282.471,201.000 281.198 C 201.880 279.926,203.936 276.931,205.570 274.542 C 207.203 272.154,208.688 270.140,208.870 270.067 C 209.051 269.993,209.200 269.693,209.200 269.400 C 209.200 269.107,209.350 268.807,209.534 268.733 C 209.717 268.660,211.141 266.710,212.699 264.400 C 214.256 262.090,216.727 258.490,218.189 256.400 C 219.651 254.310,221.950 250.980,223.299 249.000 C 224.647 247.020,225.986 245.162,226.275 244.871 C 226.564 244.581,226.800 244.189,226.800 244.000 C 226.800 243.811,227.031 243.419,227.314 243.129 C 227.783 242.646,233.044 235.076,240.748 223.800 C 242.401 221.380,243.899 219.340,244.077 219.267 C 244.255 219.193,244.400 218.893,244.400 218.600 C 244.400 218.307,244.544 218.007,244.719 217.933 C 244.895 217.860,246.576 215.550,248.454 212.800 C 255.230 202.881,260.458 195.377,261.412 194.200 C 261.948 193.540,262.389 192.790,262.393 192.533 C 262.397 192.277,262.543 192.007,262.718 191.933 C 262.894 191.860,265.000 188.920,267.399 185.400 C 269.798 181.880,271.950 178.795,272.180 178.545 C 272.411 178.295,274.130 175.800,276.000 173.000 C 277.870 170.200,279.590 167.705,279.822 167.455 C 280.054 167.205,282.384 163.850,285.000 160.000 C 287.616 156.150,289.871 152.910,290.010 152.800 C 290.150 152.690,291.226 151.160,292.402 149.400 C 293.577 147.640,294.688 146.140,294.870 146.067 C 295.051 145.993,295.200 145.712,295.200 145.442 C 295.200 145.172,295.515 144.602,295.900 144.175 C 296.285 143.749,297.140 142.591,297.800 141.602 C 298.460 140.614,300.185 138.094,301.632 136.002 C 303.080 133.911,304.576 131.721,304.955 131.135 L 305.646 130.070 303.723 128.758 C 302.665 128.037,301.740 127.301,301.667 127.123 C 301.593 126.945,301.293 126.800,301.000 126.800 C 300.707 126.800,300.407 126.651,300.333 126.470 C 300.260 126.288,298.760 125.174,297.000 123.993 C 295.240 122.813,293.562 121.612,293.271 121.324 C 292.981 121.036,292.589 120.800,292.400 120.800 C 292.211 120.800,291.818 120.575,291.526 120.300 C 291.234 120.025,289.556 118.819,287.797 117.621 C 286.039 116.422,282.620 114.094,280.200 112.447 C 277.780 110.800,275.710 109.351,275.600 109.226 C 274.130 107.563,270.447 105.685,269.882 106.311 " stroke="none" fill="#fbfbfc" fill-rule="evenodd"></path><path id="path1" d="M179.500 0.273 C 177.355 0.359,175.600 0.602,175.600 0.814 C 175.600 1.027,174.340 1.200,172.800 1.200 C 171.200 1.200,170.000 1.371,170.000 1.600 C 170.000 1.826,168.867 2.000,167.400 2.000 C 165.933 2.000,164.800 2.174,164.800 2.400 C 164.800 2.620,163.911 2.800,162.824 2.800 C 161.737 2.800,160.736 2.980,160.600 3.200 C 160.464 3.420,159.553 3.600,158.576 3.600 C 157.599 3.600,156.800 3.780,156.800 4.000 C 156.800 4.220,156.080 4.400,155.200 4.400 C 154.320 4.400,153.600 4.580,153.600 4.800 C 153.600 5.020,152.880 5.200,152.000 5.200 C 151.120 5.200,150.400 5.380,150.400 5.600 C 150.400 5.820,149.680 6.000,148.800 6.000 C 147.920 6.000,147.200 6.180,147.200 6.400 C 147.200 6.620,146.581 6.800,145.824 6.800 C 145.067 6.800,144.336 6.980,144.200 7.200 C 144.064 7.420,143.513 7.600,142.976 7.600 C 142.439 7.600,142.000 7.756,142.000 7.946 C 142.000 8.136,141.153 8.407,140.119 8.549 C 138.166 8.817,135.904 9.443,134.705 10.049 C 134.323 10.242,133.648 10.400,133.205 10.400 C 132.762 10.400,132.400 10.580,132.400 10.800 C 132.400 11.020,131.860 11.200,131.200 11.200 C 130.540 11.200,130.000 11.380,130.000 11.600 C 130.000 11.820,129.550 12.000,129.000 12.000 C 128.450 12.000,128.000 12.180,128.000 12.400 C 128.000 12.620,127.651 12.800,127.224 12.800 C 126.797 12.800,126.336 12.980,126.200 13.200 C 126.064 13.420,125.513 13.600,124.976 13.600 C 124.439 13.600,124.000 13.780,124.000 14.000 C 124.000 14.220,123.640 14.400,123.200 14.400 C 122.760 14.400,122.400 14.580,122.400 14.800 C 122.400 15.020,121.961 15.200,121.424 15.200 C 120.887 15.200,120.336 15.380,120.200 15.600 C 120.064 15.820,119.603 16.000,119.176 16.000 C 118.749 16.000,118.400 16.180,118.400 16.400 C 118.400 16.620,118.040 16.800,117.600 16.800 C 117.160 16.800,116.800 16.980,116.800 17.200 C 116.800 17.420,116.440 17.600,116.000 17.600 C 115.560 17.600,115.200 17.780,115.200 18.000 C 115.200 18.220,114.840 18.400,114.400 18.400 C 113.960 18.400,113.600 18.580,113.600 18.800 C 113.600 19.020,113.165 19.200,112.633 19.200 C 112.102 19.200,111.607 19.336,111.533 19.502 C 111.460 19.668,110.185 20.415,108.700 21.162 C 107.215 21.909,106.000 22.673,106.000 22.860 C 106.000 23.047,105.640 23.200,105.200 23.200 C 104.760 23.200,104.400 23.380,104.400 23.600 C 104.400 23.820,104.040 24.000,103.600 24.000 C 103.160 24.000,102.800 24.180,102.800 24.400 C 102.800 24.620,102.558 24.800,102.261 24.800 C 101.701 24.800,99.149 25.960,98.800 26.374 C 98.690 26.504,97.745 27.042,96.700 27.568 C 95.655 28.095,94.800 28.634,94.800 28.765 C 94.800 28.897,94.294 29.229,93.675 29.503 C 93.056 29.776,92.164 30.360,91.692 30.800 C 91.220 31.240,90.596 31.600,90.305 31.600 C 90.014 31.600,89.517 31.960,89.200 32.400 C 88.883 32.840,88.391 33.200,88.108 33.200 C 87.825 33.200,87.028 33.740,86.337 34.400 C 85.646 35.060,84.878 35.600,84.629 35.600 C 84.380 35.600,83.917 35.960,83.600 36.400 C 83.283 36.840,82.743 37.200,82.400 37.200 C 82.057 37.200,81.517 37.560,81.200 38.000 C 80.883 38.440,80.393 38.800,80.112 38.800 C 79.830 38.800,79.600 38.980,79.600 39.200 C 79.600 39.420,79.402 39.600,79.160 39.600 C 78.919 39.600,78.217 40.140,77.600 40.800 C 76.983 41.460,76.324 42.000,76.135 42.000 C 75.946 42.000,75.344 42.410,74.796 42.911 C 74.248 43.413,73.170 44.262,72.400 44.798 C 71.630 45.335,70.370 46.416,69.600 47.200 C 68.830 47.984,67.570 49.067,66.800 49.606 C 66.030 50.145,63.820 52.209,61.888 54.193 C 57.683 58.511,58.656 57.539,53.700 62.373 C 51.445 64.573,49.600 66.537,49.600 66.740 C 49.600 66.942,48.430 68.312,47.000 69.785 C 45.570 71.258,44.400 72.610,44.400 72.789 C 44.400 72.969,43.860 73.693,43.200 74.400 C 42.540 75.107,42.000 75.808,42.000 75.958 C 42.000 76.109,41.280 77.028,40.400 78.000 C 39.520 78.972,38.800 79.960,38.800 80.196 C 38.800 80.431,38.440 80.883,38.000 81.200 C 37.560 81.517,37.200 82.009,37.200 82.292 C 37.200 82.575,36.660 83.372,36.000 84.063 C 35.340 84.754,34.800 85.522,34.800 85.771 C 34.800 86.020,34.440 86.483,34.000 86.800 C 33.560 87.117,33.200 87.657,33.200 88.000 C 33.200 88.343,32.840 88.883,32.400 89.200 C 31.960 89.517,31.600 90.082,31.600 90.455 C 31.600 90.828,31.453 91.193,31.272 91.267 C 30.825 91.448,27.600 96.260,27.600 96.745 C 27.600 96.958,27.465 97.193,27.300 97.267 C 26.895 97.447,24.800 101.389,24.800 101.971 C 24.800 102.225,24.440 102.820,24.000 103.292 C 23.560 103.764,23.200 104.387,23.200 104.675 C 23.200 104.964,23.020 105.200,22.800 105.200 C 22.580 105.200,22.400 105.560,22.400 106.000 C 22.400 106.440,22.220 106.800,22.000 106.800 C 21.780 106.800,21.600 107.145,21.600 107.567 C 21.600 107.988,21.463 108.393,21.296 108.467 C 21.129 108.540,20.211 110.220,19.255 112.200 C 18.300 114.180,17.357 116.113,17.159 116.495 C 16.962 116.877,16.800 117.462,16.800 117.795 C 16.800 118.128,16.620 118.400,16.400 118.400 C 16.180 118.400,16.000 118.760,16.000 119.200 C 16.000 119.640,15.820 120.000,15.600 120.000 C 15.380 120.000,15.200 120.349,15.200 120.776 C 15.200 121.203,15.020 121.664,14.800 121.800 C 14.580 121.936,14.400 122.487,14.400 123.024 C 14.400 123.561,14.220 124.000,14.000 124.000 C 13.780 124.000,13.600 124.360,13.600 124.800 C 13.600 125.240,13.420 125.600,13.200 125.600 C 12.980 125.600,12.800 125.962,12.800 126.405 C 12.800 126.848,12.641 127.523,12.447 127.905 C 11.971 128.840,11.382 130.307,10.800 132.000 C 10.536 132.770,10.182 133.760,10.015 134.200 C 9.160 136.448,8.776 138.037,8.999 138.398 C 9.135 138.619,9.057 138.800,8.824 138.800 C 8.591 138.800,8.400 139.340,8.400 140.000 C 8.400 140.660,8.220 141.200,8.000 141.200 C 7.780 141.200,7.600 141.830,7.600 142.600 C 7.600 143.370,7.420 144.000,7.200 144.000 C 6.980 144.000,6.800 144.529,6.800 145.176 C 6.800 145.823,6.620 146.464,6.400 146.600 C 6.180 146.736,6.000 147.467,6.000 148.224 C 6.000 148.981,5.820 149.600,5.600 149.600 C 5.380 149.600,5.200 150.320,5.200 151.200 C 5.200 152.080,5.020 152.800,4.800 152.800 C 4.580 152.800,4.400 153.509,4.400 154.376 C 4.400 155.243,4.220 156.064,4.000 156.200 C 3.780 156.336,3.600 157.247,3.600 158.224 C 3.600 159.201,3.420 160.000,3.200 160.000 C 2.980 160.000,2.800 160.900,2.800 162.000 C 2.800 163.100,2.620 164.000,2.400 164.000 C 2.178 164.000,2.000 165.059,2.000 166.376 C 2.000 167.683,1.820 168.864,1.600 169.000 C 1.380 169.136,1.200 170.482,1.200 171.990 C 1.200 173.829,1.035 174.788,0.700 174.900 C -0.032 175.144,-0.032 224.856,0.700 225.100 C 1.035 225.212,1.200 226.171,1.200 228.010 C 1.200 229.518,1.380 230.864,1.600 231.000 C 1.820 231.136,2.000 232.317,2.000 233.624 C 2.000 234.941,2.178 236.000,2.400 236.000 C 2.620 236.000,2.800 236.900,2.800 238.000 C 2.800 239.100,2.980 240.000,3.200 240.000 C 3.420 240.000,3.600 240.709,3.600 241.576 C 3.600 242.443,3.780 243.264,4.000 243.400 C 4.220 243.536,4.400 244.447,4.400 245.424 C 4.400 246.401,4.580 247.200,4.800 247.200 C 5.020 247.200,5.200 247.920,5.200 248.800 C 5.200 249.680,5.380 250.400,5.600 250.400 C 5.820 250.400,6.000 251.019,6.000 251.776 C 6.000 252.533,6.180 253.264,6.400 253.400 C 6.620 253.536,6.800 254.177,6.800 254.824 C 6.800 255.471,6.980 256.000,7.200 256.000 C 7.420 256.000,7.600 256.630,7.600 257.400 C 7.600 258.170,7.780 258.800,8.000 258.800 C 8.220 258.800,8.400 259.340,8.400 260.000 C 8.400 260.660,8.563 261.200,8.763 261.200 C 8.962 261.200,9.038 261.533,8.931 261.940 C 8.825 262.348,8.991 262.934,9.301 263.244 C 9.611 263.554,9.784 264.048,9.686 264.343 C 9.587 264.638,9.690 265.266,9.913 265.739 C 10.137 266.213,10.536 267.230,10.800 268.000 C 11.382 269.693,11.971 271.160,12.447 272.095 C 12.641 272.477,12.800 273.152,12.800 273.595 C 12.800 274.038,12.980 274.400,13.200 274.400 C 13.420 274.400,13.600 274.760,13.600 275.200 C 13.600 275.640,13.780 276.000,14.000 276.000 C 14.220 276.000,14.400 276.439,14.400 276.976 C 14.400 277.513,14.580 278.064,14.800 278.200 C 15.020 278.336,15.200 278.797,15.200 279.224 C 15.200 279.651,15.380 280.000,15.600 280.000 C 15.820 280.000,16.000 280.360,16.000 280.800 C 16.000 281.240,16.180 281.600,16.400 281.600 C 16.620 281.600,16.800 281.960,16.800 282.400 C 16.800 282.840,16.980 283.200,17.200 283.200 C 17.420 283.200,17.600 283.650,17.600 284.200 C 17.600 284.750,17.780 285.200,18.000 285.200 C 18.220 285.200,18.400 285.453,18.400 285.762 C 18.400 286.428,20.068 289.741,20.500 289.933 C 20.665 290.007,20.800 290.412,20.800 290.833 C 20.800 291.255,20.980 291.600,21.200 291.600 C 21.420 291.600,21.600 291.960,21.600 292.400 C 21.600 292.840,21.780 293.200,22.000 293.200 C 22.220 293.200,22.400 293.478,22.400 293.817 C 22.400 294.156,22.760 294.820,23.200 295.292 C 23.640 295.764,24.000 296.387,24.000 296.675 C 24.000 296.964,24.180 297.200,24.400 297.200 C 24.620 297.200,24.800 297.491,24.800 297.846 C 24.800 298.562,26.826 302.523,27.300 302.733 C 27.465 302.807,27.600 303.088,27.600 303.358 C 27.600 303.628,27.915 304.198,28.300 304.625 C 28.685 305.051,29.254 305.892,29.564 306.493 C 29.874 307.095,30.459 307.942,30.864 308.377 C 31.269 308.811,31.600 309.404,31.600 309.695 C 31.600 309.986,31.960 310.483,32.400 310.800 C 32.840 311.117,33.200 311.657,33.200 312.000 C 33.200 312.343,33.560 312.883,34.000 313.200 C 34.440 313.517,34.800 313.980,34.800 314.229 C 34.800 314.478,35.340 315.246,36.000 315.937 C 36.660 316.628,37.200 317.425,37.200 317.708 C 37.200 317.991,37.560 318.483,38.000 318.800 C 38.440 319.117,38.800 319.585,38.800 319.840 C 38.800 320.095,39.520 321.045,40.400 321.952 C 41.280 322.859,42.000 323.762,42.000 323.958 C 42.000 324.155,42.540 324.893,43.200 325.600 C 43.860 326.307,44.400 327.042,44.400 327.234 C 44.400 327.426,45.347 328.532,46.505 329.691 C 47.662 330.851,49.054 332.430,49.597 333.200 C 50.141 333.970,52.209 336.180,54.193 338.112 C 58.537 342.342,57.658 341.463,61.888 345.807 C 63.820 347.791,66.030 349.855,66.800 350.394 C 67.570 350.933,68.830 352.016,69.600 352.800 C 70.370 353.584,71.630 354.661,72.400 355.194 C 73.170 355.726,73.890 356.270,74.000 356.402 C 74.110 356.534,74.920 357.171,75.800 357.817 C 76.680 358.463,77.691 359.308,78.047 359.696 C 78.403 360.083,78.871 360.400,79.088 360.400 C 79.304 360.400,80.046 360.940,80.737 361.600 C 81.428 362.260,82.225 362.800,82.508 362.800 C 82.791 362.800,83.283 363.160,83.600 363.600 C 83.917 364.040,84.380 364.400,84.629 364.400 C 84.878 364.400,85.646 364.940,86.337 365.600 C 87.028 366.260,87.782 366.800,88.013 366.800 C 88.244 366.800,88.820 367.160,89.292 367.600 C 89.764 368.040,90.387 368.400,90.675 368.400 C 90.964 368.400,91.200 368.580,91.200 368.800 C 91.200 369.020,91.388 369.200,91.617 369.200 C 91.846 369.200,92.420 369.560,92.892 370.000 C 93.364 370.440,93.987 370.800,94.275 370.800 C 94.564 370.800,94.800 370.952,94.800 371.137 C 94.800 371.323,95.655 371.905,96.700 372.432 C 97.745 372.958,98.690 373.502,98.800 373.639 C 99.168 374.099,101.553 375.200,102.180 375.200 C 102.521 375.200,102.800 375.380,102.800 375.600 C 102.800 375.820,103.160 376.000,103.600 376.000 C 104.040 376.000,104.400 376.180,104.400 376.400 C 104.400 376.620,104.760 376.800,105.200 376.800 C 105.640 376.800,106.000 376.980,106.000 377.200 C 106.000 377.420,106.360 377.600,106.800 377.600 C 107.240 377.600,107.600 377.780,107.600 378.000 C 107.600 378.220,107.870 378.400,108.200 378.400 C 108.530 378.400,108.800 378.580,108.800 378.800 C 108.800 379.020,109.160 379.200,109.600 379.200 C 110.040 379.200,110.401 379.335,110.403 379.500 C 110.407 379.859,112.344 380.800,113.080 380.800 C 113.366 380.800,113.600 380.980,113.600 381.200 C 113.600 381.420,113.960 381.600,114.400 381.600 C 114.840 381.600,115.200 381.780,115.200 382.000 C 115.200 382.220,115.560 382.400,116.000 382.400 C 116.440 382.400,116.800 382.580,116.800 382.800 C 116.800 383.020,117.160 383.200,117.600 383.200 C 118.040 383.200,118.400 383.380,118.400 383.600 C 118.400 383.820,118.749 384.000,119.176 384.000 C 119.603 384.000,120.064 384.180,120.200 384.400 C 120.336 384.620,120.887 384.800,121.424 384.800 C 121.961 384.800,122.400 384.980,122.400 385.200 C 122.400 385.420,122.760 385.600,123.200 385.600 C 123.640 385.600,124.000 385.780,124.000 386.000 C 124.000 386.220,124.439 386.400,124.976 386.400 C 125.513 386.400,126.064 386.580,126.200 386.800 C 126.336 387.020,126.797 387.200,127.224 387.200 C 127.651 387.200,128.000 387.380,128.000 387.600 C 128.000 387.820,128.439 388.000,128.976 388.000 C 129.513 388.000,130.064 388.180,130.200 388.400 C 130.336 388.620,130.887 388.800,131.424 388.800 C 131.961 388.800,132.400 388.980,132.400 389.200 C 132.400 389.420,132.839 389.600,133.376 389.600 C 133.913 389.600,134.464 389.780,134.600 390.000 C 134.736 390.220,135.276 390.400,135.800 390.400 C 136.324 390.400,136.853 390.562,136.976 390.761 C 137.098 390.959,138.279 391.247,139.599 391.400 C 140.920 391.553,142.000 391.841,142.000 392.039 C 142.000 392.238,142.439 392.400,142.976 392.400 C 143.513 392.400,144.064 392.580,144.200 392.800 C 144.336 393.020,145.067 393.200,145.824 393.200 C 146.581 393.200,147.200 393.380,147.200 393.600 C 147.200 393.820,147.920 394.000,148.800 394.000 C 149.680 394.000,150.400 394.180,150.400 394.400 C 150.400 394.620,151.120 394.800,152.000 394.800 C 152.880 394.800,153.600 394.980,153.600 395.200 C 153.600 395.420,154.320 395.600,155.200 395.600 C 156.080 395.600,156.800 395.780,156.800 396.000 C 156.800 396.220,157.599 396.400,158.576 396.400 C 159.553 396.400,160.464 396.580,160.600 396.800 C 160.736 397.020,161.726 397.200,162.800 397.200 C 163.874 397.200,164.864 397.380,165.000 397.600 C 165.136 397.820,166.317 398.000,167.624 398.000 C 168.941 398.000,170.000 398.178,170.000 398.400 C 170.000 398.628,171.189 398.800,172.767 398.800 C 174.624 398.800,175.588 398.964,175.700 399.300 C 175.831 399.693,181.049 399.800,200.000 399.800 C 218.951 399.800,224.169 399.693,224.300 399.300 C 224.412 398.964,225.376 398.800,227.233 398.800 C 228.811 398.800,230.000 398.628,230.000 398.400 C 230.000 398.178,231.059 398.000,232.376 398.000 C 233.683 398.000,234.864 397.820,235.000 397.600 C 235.136 397.380,236.126 397.200,237.200 397.200 C 238.274 397.200,239.264 397.020,239.400 396.800 C 239.536 396.580,240.447 396.400,241.424 396.400 C 242.401 396.400,243.200 396.220,243.200 396.000 C 243.200 395.780,243.920 395.600,244.800 395.600 C 245.680 395.600,246.400 395.420,246.400 395.200 C 246.400 394.980,247.120 394.800,248.000 394.800 C 248.880 394.800,249.600 394.620,249.600 394.400 C 249.600 394.180,250.320 394.000,251.200 394.000 C 252.080 394.000,252.800 393.820,252.800 393.600 C 252.800 393.380,253.419 393.200,254.176 393.200 C 254.933 393.200,255.664 393.020,255.800 392.800 C 255.936 392.580,256.476 392.400,257.000 392.400 C 257.524 392.400,258.056 392.233,258.183 392.028 C 258.309 391.823,259.402 391.532,260.612 391.381 C 261.821 391.230,262.909 390.948,263.029 390.753 C 263.149 390.559,263.687 390.400,264.224 390.400 C 264.761 390.400,265.200 390.220,265.200 390.000 C 265.200 389.780,265.740 389.600,266.400 389.600 C 267.060 389.600,267.600 389.420,267.600 389.200 C 267.600 388.980,268.039 388.800,268.576 388.800 C 269.113 388.800,269.664 388.620,269.800 388.400 C 269.936 388.180,270.391 388.000,270.811 388.000 C 271.232 388.000,272.217 387.640,273.000 387.200 C 273.783 386.760,274.779 386.400,275.212 386.400 C 275.645 386.400,276.000 386.220,276.000 386.000 C 276.000 385.780,276.360 385.600,276.800 385.600 C 277.240 385.600,277.600 385.420,277.600 385.200 C 277.600 384.980,278.039 384.800,278.576 384.800 C 279.113 384.800,279.664 384.620,279.800 384.400 C 279.936 384.180,280.397 384.000,280.824 384.000 C 281.251 384.000,281.600 383.820,281.600 383.600 C 281.600 383.380,281.960 383.200,282.400 383.200 C 282.840 383.200,283.200 383.020,283.200 382.800 C 283.200 382.580,283.560 382.400,284.000 382.400 C 284.440 382.400,284.800 382.220,284.800 382.000 C 284.800 381.780,285.053 381.600,285.362 381.600 C 286.028 381.600,289.341 379.932,289.533 379.500 C 289.607 379.335,290.012 379.200,290.433 379.200 C 290.855 379.200,291.200 379.020,291.200 378.800 C 291.200 378.580,291.470 378.400,291.800 378.400 C 292.130 378.400,292.400 378.220,292.400 378.000 C 292.400 377.780,292.760 377.600,293.200 377.600 C 293.640 377.600,294.000 377.420,294.000 377.200 C 294.000 376.980,294.360 376.800,294.800 376.800 C 295.240 376.800,295.600 376.620,295.600 376.400 C 295.600 376.180,295.960 376.000,296.400 376.000 C 296.840 376.000,297.200 375.820,297.200 375.600 C 297.200 375.380,297.515 375.199,297.900 375.197 C 298.285 375.196,299.140 374.833,299.800 374.390 C 300.460 373.947,301.945 373.117,303.100 372.546 C 304.255 371.974,305.200 371.347,305.200 371.153 C 305.200 370.959,305.436 370.800,305.725 370.800 C 306.013 370.800,306.636 370.440,307.108 370.000 C 307.580 369.560,308.154 369.200,308.383 369.200 C 308.612 369.200,308.800 369.020,308.800 368.800 C 308.800 368.580,309.036 368.400,309.325 368.400 C 309.613 368.400,310.236 368.040,310.708 367.600 C 311.180 367.160,311.756 366.800,311.987 366.800 C 312.218 366.800,312.972 366.260,313.663 365.600 C 314.354 364.940,315.122 364.400,315.371 364.400 C 315.620 364.400,316.083 364.040,316.400 363.600 C 316.717 363.160,317.257 362.800,317.600 362.800 C 317.943 362.800,318.483 362.440,318.800 362.000 C 319.117 361.560,319.607 361.200,319.888 361.200 C 320.170 361.200,320.400 361.020,320.400 360.800 C 320.400 360.580,320.604 360.400,320.853 360.400 C 321.102 360.400,321.597 360.083,321.953 359.696 C 322.309 359.308,323.320 358.463,324.200 357.817 C 325.080 357.171,325.890 356.534,326.000 356.402 C 326.110 356.270,326.830 355.726,327.600 355.194 C 328.370 354.661,329.630 353.584,330.400 352.800 C 331.170 352.016,332.430 350.933,333.200 350.394 C 333.970 349.855,336.180 347.791,338.112 345.807 C 342.342 341.463,341.463 342.342,345.807 338.112 C 347.791 336.180,349.859 333.970,350.403 333.200 C 350.946 332.430,352.338 330.851,353.495 329.691 C 354.653 328.532,355.600 327.429,355.600 327.242 C 355.600 327.054,356.230 326.213,357.000 325.372 C 357.770 324.531,358.400 323.721,358.400 323.572 C 358.400 323.423,359.030 322.613,359.800 321.772 C 360.570 320.931,361.200 320.049,361.200 319.810 C 361.200 319.572,361.560 319.117,362.000 318.800 C 362.440 318.483,362.800 317.991,362.800 317.708 C 362.800 317.425,363.340 316.628,364.000 315.937 C 364.660 315.246,365.200 314.478,365.200 314.229 C 365.200 313.980,365.560 313.517,366.000 313.200 C 366.440 312.883,366.800 312.343,366.800 312.000 C 366.800 311.657,367.160 311.117,367.600 310.800 C 368.040 310.483,368.400 309.943,368.400 309.600 C 368.400 309.257,368.760 308.717,369.200 308.400 C 369.640 308.083,370.000 307.671,370.000 307.484 C 370.000 307.297,370.540 306.359,371.200 305.400 C 371.860 304.441,372.400 303.478,372.400 303.261 C 372.400 303.044,372.535 302.807,372.700 302.733 C 373.174 302.523,375.200 298.562,375.200 297.846 C 375.200 297.491,375.380 297.200,375.600 297.200 C 375.820 297.200,376.000 296.964,376.000 296.675 C 376.000 296.387,376.360 295.764,376.800 295.292 C 377.240 294.820,377.600 294.156,377.600 293.817 C 377.600 293.478,377.780 293.200,378.000 293.200 C 378.220 293.200,378.400 292.840,378.400 292.400 C 378.400 291.960,378.580 291.600,378.800 291.600 C 379.020 291.600,379.200 291.255,379.200 290.833 C 379.200 290.412,379.335 290.007,379.500 289.933 C 379.932 289.741,381.600 286.428,381.600 285.762 C 381.600 285.453,381.780 285.200,382.000 285.200 C 382.220 285.200,382.400 284.851,382.400 284.424 C 382.400 283.997,382.580 283.536,382.800 283.400 C 383.020 283.264,383.200 282.803,383.200 282.376 C 383.200 281.949,383.380 281.600,383.600 281.600 C 383.820 281.600,384.000 281.240,384.000 280.800 C 384.000 280.360,384.180 280.000,384.400 280.000 C 384.620 280.000,384.800 279.651,384.800 279.224 C 384.800 278.797,384.980 278.336,385.200 278.200 C 385.420 278.064,385.600 277.513,385.600 276.976 C 385.600 276.439,385.780 276.000,386.000 276.000 C 386.220 276.000,386.400 275.640,386.400 275.200 C 386.400 274.760,386.580 274.400,386.800 274.400 C 387.020 274.400,387.200 273.961,387.200 273.424 C 387.200 272.887,387.380 272.336,387.600 272.200 C 387.820 272.064,388.000 271.513,388.000 270.976 C 388.000 270.439,388.141 270.000,388.313 270.000 C 388.485 270.000,388.875 269.145,389.180 268.100 C 389.485 267.055,389.868 265.930,390.030 265.600 C 390.591 264.462,391.600 260.706,391.600 259.754 C 391.600 259.229,391.780 258.800,392.000 258.800 C 392.220 258.800,392.400 258.170,392.400 257.400 C 392.400 256.630,392.580 256.000,392.800 256.000 C 393.020 256.000,393.200 255.471,393.200 254.824 C 393.200 254.177,393.380 253.536,393.600 253.400 C 393.820 253.264,394.000 252.533,394.000 251.776 C 394.000 251.019,394.180 250.400,394.400 250.400 C 394.620 250.400,394.800 249.680,394.800 248.800 C 394.800 247.920,394.980 247.200,395.200 247.200 C 395.420 247.200,395.600 246.401,395.600 245.424 C 395.600 244.447,395.780 243.536,396.000 243.400 C 396.220 243.264,396.400 242.443,396.400 241.576 C 396.400 240.709,396.580 240.000,396.800 240.000 C 397.020 240.000,397.200 239.111,397.200 238.024 C 397.200 236.937,397.380 235.936,397.600 235.800 C 397.820 235.664,398.000 234.584,398.000 233.400 C 398.000 232.216,398.180 231.136,398.400 231.000 C 398.620 230.864,398.800 229.518,398.800 228.010 C 398.800 226.171,398.965 225.212,399.300 225.100 C 399.693 224.969,399.800 219.591,399.800 200.000 C 399.800 180.409,399.693 175.031,399.300 174.900 C 398.965 174.788,398.800 173.829,398.800 171.990 C 398.800 170.482,398.620 169.136,398.400 169.000 C 398.180 168.864,398.000 167.784,398.000 166.600 C 398.000 165.416,397.820 164.336,397.600 164.200 C 397.380 164.064,397.200 163.063,397.200 161.976 C 397.200 160.889,397.020 160.000,396.800 160.000 C 396.580 160.000,396.400 159.201,396.400 158.224 C 396.400 157.247,396.220 156.336,396.000 156.200 C 395.780 156.064,395.600 155.243,395.600 154.376 C 395.600 153.509,395.420 152.800,395.200 152.800 C 394.980 152.800,394.800 152.080,394.800 151.200 C 394.800 150.320,394.620 149.600,394.400 149.600 C 394.180 149.600,394.000 148.981,394.000 148.224 C 394.000 147.467,393.820 146.736,393.600 146.600 C 393.380 146.464,393.200 145.823,393.200 145.176 C 393.200 144.529,393.020 144.000,392.800 144.000 C 392.580 144.000,392.400 143.370,392.400 142.600 C 392.400 141.830,392.220 141.200,392.000 141.200 C 391.780 141.200,391.600 140.771,391.600 140.246 C 391.600 139.355,390.715 136.018,389.997 134.200 C 389.823 133.760,389.464 132.770,389.200 132.000 C 388.618 130.307,388.029 128.840,387.553 127.905 C 387.359 127.523,387.200 126.848,387.200 126.405 C 387.200 125.962,387.020 125.600,386.800 125.600 C 386.580 125.600,386.400 125.240,386.400 124.800 C 386.400 124.360,386.220 124.000,386.000 124.000 C 385.780 124.000,385.600 123.561,385.600 123.024 C 385.600 122.487,385.420 121.936,385.200 121.800 C 384.980 121.664,384.800 121.203,384.800 120.776 C 384.800 120.349,384.620 120.000,384.400 120.000 C 384.180 120.000,384.000 119.640,384.000 119.200 C 384.000 118.760,383.820 118.400,383.600 118.400 C 383.380 118.400,383.200 118.128,383.200 117.795 C 383.200 117.462,383.039 116.877,382.842 116.495 C 382.645 116.113,381.881 114.540,381.144 113.000 C 380.407 111.460,379.668 110.140,379.502 110.067 C 379.336 109.993,379.200 109.588,379.200 109.167 C 379.200 108.745,379.020 108.400,378.800 108.400 C 378.580 108.400,378.400 108.040,378.400 107.600 C 378.400 107.160,378.220 106.800,378.000 106.800 C 377.780 106.800,377.600 106.522,377.600 106.183 C 377.600 105.844,377.240 105.180,376.800 104.708 C 376.360 104.236,376.000 103.613,376.000 103.325 C 376.000 103.036,375.820 102.800,375.600 102.800 C 375.380 102.800,375.200 102.509,375.200 102.154 C 375.200 101.438,373.174 97.477,372.700 97.267 C 372.535 97.193,372.400 96.912,372.400 96.642 C 372.400 96.372,372.085 95.802,371.700 95.375 C 371.315 94.949,370.746 94.108,370.436 93.507 C 370.126 92.905,369.541 92.058,369.136 91.623 C 368.731 91.189,368.400 90.596,368.400 90.305 C 368.400 90.014,368.040 89.517,367.600 89.200 C 367.160 88.883,366.800 88.343,366.800 88.000 C 366.800 87.657,366.440 87.117,366.000 86.800 C 365.560 86.483,365.200 85.975,365.200 85.672 C 365.200 85.369,364.660 84.617,364.000 84.000 C 363.340 83.383,362.800 82.631,362.800 82.328 C 362.800 82.025,362.440 81.517,362.000 81.200 C 361.560 80.883,361.200 80.431,361.200 80.196 C 361.200 79.960,360.480 78.972,359.600 78.000 C 358.720 77.028,358.000 76.109,358.000 75.958 C 358.000 75.808,357.460 75.107,356.800 74.400 C 356.140 73.693,355.600 72.969,355.600 72.789 C 355.600 72.610,354.430 71.258,353.000 69.785 C 351.570 68.312,350.400 66.942,350.400 66.740 C 350.400 66.537,348.555 64.573,346.300 62.373 C 341.344 57.539,342.317 58.511,338.112 54.193 C 336.180 52.209,333.983 50.149,333.229 49.615 C 332.474 49.081,330.876 47.694,329.677 46.533 C 328.479 45.371,327.161 44.314,326.749 44.184 C 326.337 44.053,326.000 43.748,326.000 43.506 C 326.000 43.265,325.881 43.186,325.736 43.331 C 325.591 43.476,325.220 43.236,324.913 42.797 C 324.606 42.359,324.167 42.000,323.938 42.000 C 323.709 42.000,323.017 41.460,322.400 40.800 C 321.783 40.140,321.081 39.600,320.840 39.600 C 320.598 39.600,320.400 39.420,320.400 39.200 C 320.400 38.980,320.170 38.800,319.888 38.800 C 319.607 38.800,319.117 38.440,318.800 38.000 C 318.483 37.560,317.943 37.200,317.600 37.200 C 317.257 37.200,316.717 36.840,316.400 36.400 C 316.083 35.960,315.620 35.600,315.371 35.600 C 315.122 35.600,314.354 35.060,313.663 34.400 C 312.972 33.740,312.175 33.200,311.892 33.200 C 311.609 33.200,311.117 32.840,310.800 32.400 C 310.483 31.960,309.986 31.600,309.695 31.600 C 309.404 31.600,308.780 31.240,308.308 30.800 C 307.836 30.360,306.944 29.776,306.325 29.503 C 305.706 29.229,305.200 28.897,305.200 28.765 C 305.200 28.634,304.345 28.098,303.300 27.575 C 302.255 27.052,300.729 26.214,299.908 25.712 C 299.087 25.211,298.142 24.800,297.808 24.800 C 297.474 24.800,297.200 24.620,297.200 24.400 C 297.200 24.180,296.840 24.000,296.400 24.000 C 295.960 24.000,295.600 23.820,295.600 23.600 C 295.600 23.380,295.322 23.200,294.983 23.200 C 294.644 23.200,293.980 22.840,293.508 22.400 C 293.036 21.960,292.413 21.600,292.125 21.600 C 291.836 21.600,291.600 21.420,291.600 21.200 C 291.600 20.980,291.240 20.800,290.800 20.800 C 290.360 20.800,290.000 20.620,290.000 20.400 C 290.000 20.180,289.640 20.000,289.200 20.000 C 288.760 20.000,288.400 19.820,288.400 19.600 C 288.400 19.380,288.051 19.200,287.624 19.200 C 287.197 19.200,286.736 19.020,286.600 18.800 C 286.464 18.580,286.003 18.400,285.576 18.400 C 285.149 18.400,284.800 18.220,284.800 18.000 C 284.800 17.780,284.440 17.600,284.000 17.600 C 283.560 17.600,283.200 17.420,283.200 17.200 C 283.200 16.980,282.840 16.800,282.400 16.800 C 281.960 16.800,281.600 16.620,281.600 16.400 C 281.600 16.180,281.251 16.000,280.824 16.000 C 280.397 16.000,279.936 15.820,279.800 15.600 C 279.664 15.380,279.113 15.200,278.576 15.200 C 278.039 15.200,277.600 15.020,277.600 14.800 C 277.600 14.580,277.240 14.400,276.800 14.400 C 276.360 14.400,276.000 14.220,276.000 14.000 C 276.000 13.780,275.645 13.600,275.212 13.600 C 274.779 13.600,273.783 13.240,273.000 12.800 C 272.217 12.360,271.221 12.000,270.788 12.000 C 270.355 12.000,270.000 11.820,270.000 11.600 C 270.000 11.380,269.460 11.200,268.800 11.200 C 268.140 11.200,267.600 11.020,267.600 10.800 C 267.600 10.580,267.180 10.400,266.667 10.400 C 266.153 10.400,265.610 10.277,265.459 10.126 C 264.987 9.653,262.388 8.873,260.354 8.594 C 259.280 8.446,258.300 8.162,258.177 7.963 C 258.054 7.763,257.524 7.600,257.000 7.600 C 256.476 7.600,255.936 7.420,255.800 7.200 C 255.664 6.980,254.933 6.800,254.176 6.800 C 253.419 6.800,252.800 6.620,252.800 6.400 C 252.800 6.180,252.181 6.000,251.424 6.000 C 250.667 6.000,249.936 5.820,249.800 5.600 C 249.664 5.380,248.843 5.200,247.976 5.200 C 247.109 5.200,246.400 5.020,246.400 4.800 C 246.400 4.580,245.680 4.400,244.800 4.400 C 243.920 4.400,243.200 4.220,243.200 4.000 C 243.200 3.780,242.401 3.600,241.424 3.600 C 240.447 3.600,239.536 3.420,239.400 3.200 C 239.264 2.980,238.263 2.800,237.176 2.800 C 236.089 2.800,235.200 2.620,235.200 2.400 C 235.200 2.174,234.067 2.000,232.600 2.000 C 231.133 2.000,230.000 1.826,230.000 1.600 C 230.000 1.372,228.811 1.200,227.233 1.200 C 225.451 1.200,224.410 1.031,224.308 0.724 C 224.150 0.250,188.931 -0.105,179.500 0.273 M272.805 106.268 C 274.012 107.076,275.060 107.886,275.133 108.068 C 275.207 108.251,275.477 108.400,275.733 108.400 C 275.990 108.401,276.723 108.851,277.362 109.400 C 278.001 109.950,278.664 110.400,278.834 110.400 C 279.004 110.400,279.381 110.632,279.671 110.916 C 279.962 111.200,283.080 113.394,286.600 115.792 C 290.120 118.190,293.060 120.298,293.133 120.476 C 293.207 120.654,293.488 120.800,293.758 120.800 C 294.028 120.800,294.598 121.124,295.025 121.519 C 295.451 121.915,296.970 123.028,298.400 123.992 C 299.830 124.956,301.060 125.892,301.133 126.072 C 301.207 126.253,301.522 126.400,301.833 126.400 C 302.145 126.400,302.400 126.580,302.400 126.800 C 302.400 127.020,302.670 127.200,303.000 127.200 C 303.330 127.200,303.600 127.380,303.600 127.600 C 303.600 127.820,303.779 128.000,303.997 128.000 C 304.536 128.000,306.400 129.650,306.400 130.127 C 306.400 130.453,302.185 137.015,301.600 137.600 C 301.490 137.710,300.599 138.970,299.621 140.400 C 298.643 141.830,297.742 143.090,297.620 143.200 C 297.499 143.310,297.144 143.895,296.832 144.500 C 296.520 145.105,296.115 145.600,295.932 145.600 C 295.750 145.600,295.600 145.870,295.600 146.200 C 295.600 146.530,295.420 146.800,295.200 146.800 C 294.980 146.800,294.800 147.055,294.800 147.367 C 294.800 147.678,294.656 147.993,294.479 148.067 C 294.303 148.140,292.926 150.000,291.420 152.200 C 289.914 154.400,287.745 157.550,286.600 159.200 C 285.455 160.850,283.284 164.000,281.774 166.200 C 280.265 168.400,278.708 170.549,278.315 170.975 C 277.922 171.402,277.600 171.972,277.600 172.242 C 277.600 172.512,277.453 172.793,277.272 172.867 C 277.092 172.940,276.159 174.170,275.200 175.600 C 274.241 177.030,273.308 178.260,273.128 178.333 C 272.947 178.407,272.800 178.688,272.800 178.958 C 272.800 179.228,272.485 179.798,272.099 180.225 C 271.714 180.651,270.413 182.514,269.207 184.364 C 268.002 186.214,266.822 187.924,266.586 188.164 C 266.349 188.404,265.369 189.770,264.408 191.200 C 263.447 192.630,262.556 193.890,262.429 194.000 C 262.303 194.110,261.944 194.695,261.632 195.300 C 261.320 195.905,260.915 196.400,260.732 196.400 C 260.550 196.400,260.400 196.655,260.400 196.967 C 260.400 197.278,260.254 197.593,260.076 197.667 C 259.898 197.740,257.615 200.950,255.003 204.800 C 252.391 208.650,250.146 211.890,250.014 212.000 C 249.882 212.110,248.442 214.180,246.813 216.600 C 245.185 219.020,243.735 221.090,243.592 221.200 C 243.450 221.310,242.193 223.110,240.800 225.200 C 239.407 227.290,238.162 229.090,238.033 229.200 C 237.903 229.310,237.100 230.480,236.246 231.800 C 234.681 234.221,229.204 242.029,228.811 242.400 C 228.694 242.510,228.344 243.095,228.032 243.700 C 227.720 244.305,227.315 244.800,227.132 244.800 C 226.950 244.800,226.800 245.070,226.800 245.400 C 226.800 245.730,226.620 246.000,226.400 246.000 C 226.180 246.000,226.000 246.255,226.000 246.567 C 226.000 246.878,225.856 247.193,225.681 247.267 C 225.505 247.340,223.406 250.280,221.017 253.800 C 218.627 257.320,216.521 260.260,216.336 260.333 C 216.151 260.407,216.000 260.688,216.000 260.958 C 216.000 261.228,215.685 261.808,215.300 262.246 C 214.915 262.685,214.420 263.326,214.200 263.671 C 212.833 265.813,210.204 269.421,209.928 269.533 C 209.747 269.607,209.600 269.922,209.600 270.233 C 209.600 270.545,209.420 270.800,209.200 270.800 C 208.980 270.800,208.800 271.055,208.800 271.367 C 208.800 271.678,208.656 271.993,208.480 272.067 C 208.304 272.140,205.842 275.620,203.008 279.800 C 200.174 283.980,197.739 287.490,197.597 287.600 C 197.456 287.710,196.557 288.970,195.600 290.400 C 194.643 291.830,193.756 293.090,193.629 293.200 C 193.503 293.310,193.144 293.895,192.832 294.500 C 192.520 295.105,192.115 295.600,191.932 295.600 C 191.750 295.600,191.600 295.825,191.600 296.100 C 191.599 296.375,191.194 297.083,190.700 297.673 C 190.205 298.262,188.630 300.467,187.200 302.571 C 185.585 304.946,184.335 306.397,183.901 306.398 C 183.373 306.400,175.183 300.454,174.000 299.210 C 173.890 299.095,172.990 298.377,172.000 297.615 C 171.010 296.853,170.140 296.088,170.067 295.915 C 169.993 295.742,169.755 295.600,169.538 295.600 C 169.321 295.600,168.914 295.375,168.635 295.100 C 168.355 294.825,167.530 294.150,166.800 293.600 C 166.070 293.050,165.277 292.419,165.037 292.198 C 164.796 291.977,162.710 290.360,160.400 288.603 C 158.090 286.847,155.930 285.191,155.600 284.924 C 155.270 284.657,153.380 283.166,151.400 281.611 C 149.420 280.057,147.302 278.338,146.693 277.792 C 146.084 277.247,145.436 276.800,145.252 276.800 C 145.069 276.800,144.397 276.303,143.759 275.696 C 143.122 275.088,141.970 274.146,141.200 273.601 C 140.430 273.057,139.440 272.310,139.000 271.941 C 138.560 271.572,136.310 269.812,134.000 268.029 C 131.690 266.246,129.529 264.565,129.199 264.294 C 128.868 264.022,127.788 263.175,126.799 262.410 C 125.809 261.646,124.910 260.917,124.800 260.791 C 124.690 260.665,123.970 260.123,123.200 259.586 C 122.430 259.050,121.530 258.394,121.200 258.129 C 119.465 256.733,113.996 252.434,112.634 251.395 C 108.238 248.039,106.983 247.059,106.800 246.839 C 106.690 246.706,105.520 245.788,104.200 244.799 C 102.880 243.810,101.595 242.820,101.345 242.600 C 100.526 241.881,99.438 241.028,97.000 239.195 C 89.210 233.338,88.590 232.686,89.713 231.529 C 89.995 231.238,90.666 230.370,91.204 229.600 C 91.742 228.830,92.592 227.787,93.091 227.282 C 93.591 226.777,94.000 226.235,94.000 226.078 C 94.000 225.920,94.413 225.344,94.917 224.796 C 95.421 224.248,96.410 222.990,97.114 222.000 C 97.818 221.010,99.340 218.998,100.497 217.529 C 101.654 216.059,103.408 213.809,104.397 212.529 C 105.385 211.248,106.473 209.930,106.816 209.600 C 107.158 209.270,107.873 208.370,108.406 207.600 C 108.938 206.830,109.560 205.997,109.787 205.748 C 110.014 205.499,111.454 203.654,112.987 201.648 C 114.520 199.642,116.034 198.000,116.352 198.000 C 116.821 198.000,122.874 202.345,123.600 203.202 C 123.710 203.332,124.430 203.871,125.200 204.400 C 125.970 204.929,126.870 205.649,127.200 206.000 C 127.530 206.351,128.430 207.071,129.200 207.600 C 129.970 208.129,130.690 208.661,130.800 208.782 C 130.910 208.903,132.079 209.812,133.399 210.801 C 134.718 211.790,136.703 213.320,137.810 214.200 C 138.917 215.080,140.517 216.340,141.366 217.000 C 142.215 217.660,143.936 219.010,145.191 220.000 C 146.446 220.990,148.065 222.250,148.790 222.800 C 149.514 223.350,150.427 224.070,150.820 224.400 C 152.312 225.656,153.088 226.267,156.000 228.479 C 157.650 229.732,160.463 231.892,162.250 233.279 C 164.038 234.665,166.091 236.250,166.813 236.800 C 167.536 237.350,168.323 237.986,168.563 238.213 C 168.804 238.440,169.630 239.066,170.400 239.604 C 171.170 240.142,172.213 240.992,172.718 241.491 C 174.107 242.866,174.401 242.677,177.079 238.691 C 181.391 232.272,183.615 229.019,184.115 228.399 C 184.382 228.069,185.760 226.089,187.179 223.999 C 188.597 221.910,189.902 220.140,190.079 220.067 C 190.255 219.993,190.400 219.693,190.400 219.400 C 190.400 219.107,190.545 218.807,190.723 218.733 C 191.005 218.617,195.502 212.139,200.533 204.600 C 201.414 203.280,202.254 202.110,202.400 202.000 C 202.545 201.890,203.630 200.360,204.811 198.600 C 205.992 196.840,207.282 195.051,207.679 194.625 C 208.075 194.198,208.400 193.628,208.400 193.358 C 208.400 193.088,208.543 192.807,208.718 192.733 C 208.894 192.660,211.279 189.302,214.018 185.271 C 216.758 181.239,219.405 177.459,219.900 176.871 C 220.394 176.282,220.799 175.575,220.800 175.300 C 220.800 175.025,220.938 174.800,221.106 174.800 C 221.274 174.800,221.856 174.080,222.400 173.200 C 222.944 172.320,223.526 171.600,223.694 171.600 C 223.862 171.600,224.000 171.364,224.000 171.075 C 224.000 170.787,224.360 170.164,224.800 169.692 C 225.240 169.220,225.600 168.738,225.600 168.621 C 225.600 168.505,225.869 168.092,226.197 167.705 C 226.526 167.317,229.138 163.580,232.001 159.400 C 239.714 148.142,240.513 147.013,240.872 146.867 C 241.053 146.793,241.200 146.523,241.201 146.267 C 241.201 146.010,241.741 145.170,242.400 144.400 C 243.059 143.630,243.599 142.790,243.599 142.533 C 243.600 142.277,243.743 142.007,243.918 141.933 C 244.094 141.860,246.200 138.920,248.599 135.400 C 250.998 131.880,253.195 128.762,253.480 128.471 C 253.766 128.181,254.000 127.789,254.000 127.600 C 254.000 127.411,254.235 127.019,254.522 126.729 C 254.809 126.438,255.832 125.030,256.794 123.600 C 257.757 122.170,258.692 120.940,258.872 120.867 C 259.053 120.793,259.200 120.512,259.200 120.242 C 259.200 119.972,259.515 119.392,259.900 118.954 C 260.285 118.515,260.780 117.867,261.000 117.514 C 261.220 117.160,262.200 115.730,263.177 114.336 C 264.155 112.941,266.032 110.225,267.349 108.300 C 270.105 104.272,269.923 104.340,272.805 106.268 " stroke="none" fill="#34bcfb" fill-rule="evenodd"></path><path id="path2" d="M270.198 105.495 C 270.637 105.606,271.762 106.223,272.698 106.867 C 273.634 107.511,274.400 107.948,274.400 107.838 C 274.400 107.387,270.801 105.203,270.128 105.246 C 269.493 105.287,269.502 105.319,270.198 105.495 M258.000 122.200 C 257.319 123.190,256.852 124.000,256.962 124.000 C 257.072 124.000,257.719 123.190,258.400 122.200 C 259.081 121.210,259.548 120.400,259.438 120.400 C 259.328 120.400,258.681 121.210,258.000 122.200 M240.000 148.200 C 239.319 149.190,238.852 150.000,238.962 150.000 C 239.072 150.000,239.719 149.190,240.400 148.200 C 241.081 147.210,241.548 146.400,241.438 146.400 C 241.328 146.400,240.681 147.210,240.000 148.200 M282.000 164.800 C 281.530 165.460,281.236 166.000,281.346 166.000 C 281.456 166.000,281.930 165.460,282.400 164.800 C 282.870 164.140,283.164 163.600,283.054 163.600 C 282.944 163.600,282.470 164.140,282.000 164.800 M223.293 172.300 C 222.257 173.796,221.921 174.400,222.123 174.400 C 222.217 174.400,222.770 173.680,223.353 172.800 C 224.536 171.012,224.484 170.579,223.293 172.300 M264.400 190.200 C 263.719 191.190,263.252 192.000,263.362 192.000 C 263.472 192.000,264.119 191.190,264.800 190.200 C 265.481 189.210,265.948 188.400,265.838 188.400 C 265.728 188.400,265.081 189.210,264.400 190.200 M204.800 199.000 C 204.119 199.990,203.652 200.800,203.762 200.800 C 203.872 200.800,204.519 199.990,205.200 199.000 C 205.881 198.010,206.348 197.200,206.238 197.200 C 206.128 197.200,205.481 198.010,204.800 199.000 M123.344 203.509 C 123.660 204.021,126.000 205.753,126.000 205.475 C 126.000 205.376,125.339 204.791,124.532 204.175 C 123.724 203.559,123.189 203.259,123.344 203.509 M246.800 215.600 C 246.330 216.260,246.036 216.800,246.146 216.800 C 246.256 216.800,246.730 216.260,247.200 215.600 C 247.670 214.940,247.964 214.400,247.854 214.400 C 247.744 214.400,247.270 214.940,246.800 215.600 M228.000 242.800 C 227.530 243.460,227.236 244.000,227.346 244.000 C 227.456 244.000,227.930 243.460,228.400 242.800 C 228.870 242.140,229.164 241.600,229.054 241.600 C 228.944 241.600,228.470 242.140,228.000 242.800 M124.144 259.909 C 124.460 260.421,126.800 262.153,126.800 261.875 C 126.800 261.776,126.139 261.191,125.332 260.575 C 124.524 259.959,123.989 259.659,124.144 259.909 M210.800 267.600 C 210.330 268.260,210.036 268.800,210.146 268.800 C 210.256 268.800,210.730 268.260,211.200 267.600 C 211.670 266.940,211.964 266.400,211.854 266.400 C 211.744 266.400,211.270 266.940,210.800 267.600 M174.800 299.325 C 174.800 299.424,175.461 300.009,176.268 300.625 C 177.076 301.241,177.611 301.541,177.456 301.291 C 177.140 300.779,174.800 299.047,174.800 299.325 " stroke="none" fill="#82d6fc" fill-rule="evenodd"></path><path id="path3" d="M275.607 109.111 C 275.611 109.270,277.456 110.625,279.707 112.121 C 281.958 113.618,285.060 115.743,286.600 116.843 C 289.560 118.957,290.800 119.732,290.800 119.467 C 290.800 119.379,289.585 118.473,288.100 117.455 C 286.615 116.436,283.195 114.077,280.500 112.213 C 277.805 110.348,275.603 108.953,275.607 109.111 M265.020 112.600 C 264.019 114.030,262.381 116.370,261.380 117.800 C 260.379 119.230,259.704 120.392,259.880 120.383 C 260.056 120.374,261.766 118.034,263.680 115.183 C 267.297 109.796,268.197 108.063,265.020 112.600 M291.200 119.927 C 291.200 120.116,291.650 120.477,292.200 120.727 C 292.750 120.978,293.200 121.117,293.200 121.037 C 293.200 120.957,292.750 120.597,292.200 120.237 C 291.650 119.876,291.200 119.737,291.200 119.927 M293.609 121.480 C 293.614 121.656,295.099 122.766,296.909 123.946 C 300.685 126.408,300.304 125.845,296.300 123.047 C 294.815 122.009,293.604 121.304,293.609 121.480 M255.544 126.300 C 254.252 127.860,253.919 128.400,254.251 128.395 C 254.443 128.392,255.007 127.762,255.504 126.995 C 256.472 125.501,256.492 125.156,255.544 126.300 M301.607 127.075 C 301.611 127.254,302.518 127.991,303.623 128.713 C 304.902 129.550,305.528 130.203,305.347 130.513 C 305.191 130.781,303.887 132.698,302.450 134.774 C 301.013 136.850,300.061 138.409,300.335 138.240 C 301.388 137.590,305.973 130.249,305.604 129.805 C 304.964 129.033,301.600 126.736,301.607 127.075 M252.257 130.994 C 251.451 132.207,250.867 133.200,250.958 133.200 C 251.252 133.200,254.062 129.128,253.888 128.955 C 253.796 128.863,253.062 129.781,252.257 130.994 M248.986 135.700 C 246.387 139.288,243.276 143.997,243.513 143.982 C 243.827 143.962,250.123 134.800,249.823 134.800 C 249.721 134.800,249.344 135.205,248.986 135.700 M295.669 144.439 C 294.910 145.654,295.366 145.816,296.155 144.612 C 296.520 144.056,296.678 143.600,296.505 143.600 C 296.333 143.600,295.957 143.978,295.669 144.439 M242.206 145.488 L 241.504 146.600 242.430 145.711 C 242.939 145.222,243.255 144.722,243.132 144.599 C 243.009 144.476,242.592 144.876,242.206 145.488 M293.296 148.032 C 292.580 149.115,292.077 150.000,292.178 150.000 C 292.450 150.000,294.900 146.367,294.738 146.204 C 294.661 146.127,294.012 146.950,293.296 148.032 M239.297 149.700 C 238.130 151.154,233.527 158.092,233.869 157.881 C 234.322 157.601,240.125 149.200,239.865 149.200 C 239.773 149.200,239.517 149.425,239.297 149.700 M285.858 158.718 C 283.690 161.953,282.186 164.330,282.515 164.000 C 283.450 163.064,290.395 152.798,290.080 152.818 C 289.926 152.828,288.026 155.483,285.858 158.718 M230.181 162.900 C 228.461 165.375,226.414 168.292,225.633 169.382 C 224.851 170.472,224.429 171.229,224.695 171.065 C 224.961 170.901,226.848 168.333,228.889 165.360 C 230.930 162.387,232.847 159.604,233.149 159.177 C 233.451 158.750,233.610 158.400,233.502 158.400 C 233.395 158.400,231.900 160.425,230.181 162.900 M277.248 171.121 C 275.845 173.254,274.967 174.730,275.297 174.400 C 276.327 173.371,280.484 167.199,280.133 167.221 C 279.950 167.232,278.652 168.987,277.248 171.121 M219.750 177.900 C 218.271 180.045,215.683 183.780,213.999 186.200 C 212.315 188.620,209.904 192.085,208.641 193.900 C 207.378 195.715,206.492 197.195,206.672 197.190 C 206.853 197.184,208.480 194.979,210.289 192.290 C 212.099 189.600,215.664 184.385,218.212 180.700 C 220.760 177.015,222.754 174.000,222.642 174.000 C 222.530 174.000,221.229 175.755,219.750 177.900 M273.356 176.900 C 272.721 177.835,272.102 178.690,271.980 178.800 C 271.420 179.305,264.727 189.292,265.106 189.058 C 265.342 188.912,266.986 186.679,268.758 184.096 C 270.531 181.513,272.489 178.680,273.109 177.800 C 274.560 175.741,274.886 175.200,274.678 175.200 C 274.585 175.200,273.990 175.965,273.356 176.900 M257.488 199.718 C 255.557 202.623,254.430 204.448,254.983 203.774 C 256.669 201.718,261.606 194.399,261.294 194.418 C 261.132 194.428,259.420 196.813,257.488 199.718 M114.164 200.900 C 113.123 202.275,111.649 204.165,110.888 205.100 C 110.126 206.035,109.596 206.800,109.708 206.800 C 109.874 206.800,111.500 204.824,116.260 198.840 C 116.330 198.752,117.756 199.742,119.429 201.040 C 123.499 204.197,124.947 205.183,123.200 203.607 C 121.396 201.979,116.681 198.409,116.329 198.404 C 116.179 198.402,115.205 199.525,114.164 200.900 M204.100 200.500 C 203.737 200.956,202.316 203.027,197.307 210.400 C 196.336 211.830,196.002 212.460,196.566 211.800 C 197.782 210.375,204.902 200.000,204.663 200.000 C 204.572 200.000,204.319 200.225,204.100 200.500 M124.805 205.073 C 124.808 205.253,125.457 205.819,126.248 206.332 C 127.040 206.845,127.572 207.078,127.431 206.851 C 127.041 206.218,124.799 204.701,124.805 205.073 M252.889 206.300 C 248.753 212.246,246.737 215.286,247.066 215.083 C 247.547 214.786,254.127 205.200,253.850 205.200 C 253.743 205.200,253.310 205.695,252.889 206.300 M129.069 208.509 C 131.160 210.191,131.814 210.505,130.200 209.052 C 129.320 208.260,128.451 207.609,128.269 207.606 C 128.087 207.603,128.447 208.009,129.069 208.509 M107.144 209.900 C 105.852 211.460,105.519 212.000,105.851 211.995 C 106.043 211.992,106.607 211.362,107.104 210.595 C 108.072 209.101,108.092 208.756,107.144 209.900 M132.015 210.693 C 132.024 210.862,132.699 211.469,133.515 212.043 C 134.332 212.616,136.710 214.386,138.800 215.974 C 140.890 217.563,141.980 218.312,141.223 217.638 C 138.905 215.576,131.999 210.367,132.015 210.693 M103.200 214.866 C 102.210 216.198,101.044 217.754,100.608 218.324 C 100.172 218.894,100.010 219.241,100.247 219.094 C 100.909 218.685,105.696 212.397,105.326 212.423 C 105.146 212.435,104.190 213.535,103.200 214.866 M194.492 214.300 C 190.176 220.522,189.215 221.999,189.485 221.990 C 189.808 221.980,195.744 213.200,195.429 213.200 C 195.333 213.200,194.911 213.695,194.492 214.300 M143.398 219.537 C 143.834 220.052,144.553 220.659,144.996 220.886 C 145.845 221.321,145.721 221.187,143.803 219.594 C 142.648 218.635,142.634 218.633,143.398 219.537 M240.501 224.114 C 238.686 226.801,235.467 231.501,233.347 234.557 C 231.227 237.613,229.674 240.001,229.898 239.863 C 230.121 239.725,232.131 236.955,234.364 233.706 C 236.597 230.458,239.775 225.865,241.426 223.500 C 243.077 221.135,244.287 219.206,244.114 219.214 C 243.941 219.222,242.315 221.427,240.501 224.114 M96.689 223.223 C 95.198 225.190,94.118 226.793,94.289 226.785 C 94.460 226.776,95.069 226.101,95.643 225.285 C 96.216 224.468,97.447 222.855,98.377 221.700 C 99.307 220.545,99.918 219.610,99.734 219.623 C 99.550 219.636,98.180 221.256,96.689 223.223 M147.069 222.509 C 149.160 224.191,149.814 224.505,148.200 223.052 C 147.320 222.260,146.451 221.609,146.269 221.606 C 146.087 221.603,146.447 222.009,147.069 222.509 M150.000 224.778 C 150.000 225.010,150.135 225.200,150.300 225.200 C 150.465 225.201,151.080 225.606,151.666 226.100 C 152.253 226.595,154.026 227.990,155.607 229.200 C 157.188 230.410,160.758 233.181,163.541 235.358 C 166.323 237.535,168.825 239.492,169.100 239.707 C 169.375 239.922,169.600 239.996,169.600 239.871 C 169.600 239.746,168.025 238.419,166.100 236.922 C 164.176 235.425,162.331 233.986,162.000 233.725 C 152.734 226.389,150.000 224.351,150.000 224.778 M184.551 228.700 C 183.073 230.845,181.075 233.725,180.112 235.100 C 179.148 236.475,178.504 237.592,178.680 237.582 C 179.021 237.564,187.760 224.800,187.432 224.800 C 187.326 224.800,186.030 226.555,184.551 228.700 M91.609 229.826 C 89.190 232.904,89.020 232.464,94.141 236.376 C 96.154 237.914,98.835 240.003,100.100 241.018 C 101.365 242.034,102.390 242.715,102.377 242.532 C 102.365 242.350,101.330 241.437,100.077 240.505 C 96.844 238.098,93.285 235.337,91.438 233.803 L 89.853 232.486 91.437 230.543 C 93.757 227.697,94.121 227.200,93.885 227.200 C 93.769 227.200,92.744 228.382,91.609 229.826 M176.400 240.400 C 174.494 243.207,174.148 243.276,171.667 241.350 L 169.800 239.900 171.600 241.538 C 174.088 243.803,174.663 243.696,176.703 240.592 C 177.639 239.166,178.321 238.000,178.217 238.000 C 178.114 238.000,177.296 239.080,176.400 240.400 M102.800 242.943 C 102.800 243.052,104.330 244.322,106.200 245.766 C 108.070 247.209,109.599 248.257,109.597 248.095 C 109.596 247.933,109.000 247.395,108.273 246.900 C 107.546 246.406,106.603 245.681,106.176 245.290 C 105.096 244.300,102.800 242.704,102.800 242.943 M226.873 243.800 C 226.622 244.350,226.483 244.800,226.563 244.800 C 226.643 244.800,227.003 244.350,227.363 243.800 C 227.724 243.250,227.863 242.800,227.673 242.800 C 227.484 242.800,227.123 243.250,226.873 243.800 M222.800 249.653 C 218.309 256.277,218.545 255.904,219.280 255.200 C 220.207 254.312,226.417 245.198,226.085 245.214 C 225.928 245.222,224.450 247.219,222.800 249.653 M110.140 248.703 C 110.296 248.956,110.991 249.567,111.684 250.060 C 112.377 250.554,112.817 250.750,112.660 250.497 C 112.504 250.244,111.809 249.633,111.116 249.140 C 110.423 248.646,109.983 248.450,110.140 248.703 M114.400 251.997 C 116.577 253.932,120.006 256.530,120.155 256.356 C 120.229 256.270,118.649 254.974,116.645 253.476 C 114.640 251.978,113.630 251.312,114.400 251.997 M218.112 256.500 C 216.595 258.468,212.324 264.894,212.679 264.675 C 213.163 264.375,218.947 256.000,218.669 256.000 C 218.575 256.000,218.324 256.225,218.112 256.500 M122.200 258.148 C 123.080 258.940,123.949 259.591,124.131 259.594 C 124.313 259.597,123.953 259.191,123.331 258.691 C 121.240 257.009,120.586 256.695,122.200 258.148 M128.140 262.703 C 128.296 262.956,128.991 263.567,129.684 264.060 C 130.377 264.554,130.817 264.750,130.660 264.497 C 130.504 264.244,129.809 263.633,129.116 263.140 C 128.423 262.646,127.983 262.450,128.140 262.703 M131.215 265.084 C 131.224 265.258,131.899 265.869,132.715 266.443 C 133.532 267.016,135.190 268.273,136.400 269.236 C 137.610 270.198,138.381 270.708,138.113 270.368 C 137.402 269.465,131.197 264.712,131.215 265.084 M205.706 274.311 C 204.115 276.670,202.307 279.320,201.688 280.200 C 200.215 282.296,199.914 282.800,200.137 282.800 C 200.239 282.800,200.969 281.855,201.760 280.700 C 202.551 279.545,204.543 276.665,206.187 274.300 C 207.830 271.935,209.045 270.005,208.887 270.011 C 208.729 270.017,207.298 271.952,205.706 274.311 M140.200 272.127 C 141.080 272.920,141.949 273.577,142.131 273.585 C 142.313 273.593,141.953 273.191,141.331 272.691 C 139.213 270.987,138.595 270.679,140.200 272.127 M142.800 274.149 C 142.800 274.235,143.430 274.786,144.200 275.373 C 144.970 275.960,145.598 276.297,145.595 276.120 C 145.592 275.944,144.962 275.393,144.195 274.896 C 143.428 274.399,142.800 274.063,142.800 274.149 M146.115 276.662 C 146.251 276.882,148.913 279.028,152.030 281.431 C 158.561 286.465,163.945 290.672,166.100 292.425 C 166.925 293.096,167.594 293.500,167.588 293.323 C 167.581 293.145,166.726 292.371,165.688 291.603 C 164.649 290.834,163.710 290.113,163.600 290.000 C 163.490 289.888,162.692 289.256,161.827 288.598 C 159.266 286.649,156.380 284.411,151.769 280.800 C 146.408 276.601,145.804 276.159,146.115 276.662 M199.137 283.900 C 198.046 285.201,193.465 292.131,193.856 291.889 C 194.294 291.618,200.136 283.200,199.886 283.200 C 199.797 283.200,199.460 283.515,199.137 283.900 M168.000 293.753 C 168.000 293.836,168.675 294.399,169.500 295.002 L 171.000 296.100 169.722 294.850 C 168.552 293.706,168.000 293.354,168.000 293.753 M191.673 294.600 C 191.422 295.150,191.283 295.600,191.363 295.600 C 191.443 295.600,191.803 295.150,192.163 294.600 C 192.524 294.050,192.663 293.600,192.473 293.600 C 192.284 293.600,191.923 294.050,191.673 294.600 M187.655 300.434 C 183.530 306.518,184.467 306.440,178.023 301.235 C 177.045 300.446,176.373 300.012,176.528 300.271 C 176.936 300.949,183.469 306.000,183.937 306.000 C 184.342 306.000,190.985 296.442,190.738 296.217 C 190.662 296.147,189.275 298.045,187.655 300.434 M173.340 297.903 C 173.496 298.156,174.191 298.767,174.884 299.260 C 175.577 299.754,176.017 299.950,175.860 299.697 C 175.704 299.444,175.009 298.833,174.316 298.340 C 173.623 297.846,173.183 297.650,173.340 297.903 " stroke="none" fill="#b0e5fc" fill-rule="evenodd"></path><path id="path4" d="M267.229 108.485 C 265.846 110.511,264.958 111.966,265.257 111.719 C 265.556 111.471,266.700 109.909,267.800 108.248 C 268.900 106.587,270.070 105.152,270.400 105.060 C 270.909 104.918,270.905 104.886,270.372 104.846 C 270.002 104.819,268.711 106.313,267.229 108.485 M276.394 109.182 C 276.941 109.602,277.468 109.866,277.565 109.769 C 277.791 109.542,276.329 108.427,275.800 108.422 C 275.580 108.420,275.847 108.761,276.394 109.182 M278.000 110.163 C 278.000 110.243,278.450 110.603,279.000 110.963 C 279.550 111.324,280.000 111.463,280.000 111.273 C 280.000 111.084,279.550 110.723,279.000 110.473 C 278.450 110.222,278.000 110.083,278.000 110.163 M285.398 115.197 C 285.716 115.711,292.820 120.520,292.985 120.333 C 293.050 120.260,291.311 118.979,289.120 117.488 C 286.930 115.996,285.255 114.965,285.398 115.197 M261.398 116.802 C 260.998 117.244,260.766 117.699,260.882 117.815 C 260.997 117.930,261.390 117.569,261.755 117.012 C 262.552 115.796,262.393 115.702,261.398 116.802 M259.669 119.239 C 258.910 120.454,259.366 120.616,260.155 119.412 C 260.520 118.856,260.678 118.400,260.505 118.400 C 260.333 118.400,259.957 118.778,259.669 119.239 M294.394 121.582 C 294.941 122.002,295.468 122.266,295.565 122.169 C 295.791 121.942,294.329 120.827,293.800 120.822 C 293.580 120.820,293.847 121.161,294.394 121.582 M254.073 127.400 C 253.822 127.950,253.683 128.400,253.763 128.400 C 253.843 128.400,254.203 127.950,254.563 127.400 C 254.924 126.850,255.063 126.400,254.873 126.400 C 254.684 126.400,254.323 126.850,254.073 127.400 M250.288 132.880 C 248.796 135.070,247.765 136.745,247.997 136.602 C 248.511 136.284,253.320 129.180,253.133 129.015 C 253.060 128.950,251.779 130.689,250.288 132.880 M302.155 136.212 C 301.790 136.769,301.564 137.298,301.653 137.387 C 301.742 137.476,302.118 137.020,302.489 136.374 C 303.314 134.936,303.069 134.817,302.155 136.212 M299.268 140.290 C 298.315 141.708,297.595 142.925,297.668 142.993 C 297.740 143.062,298.589 141.961,299.553 140.546 C 300.517 139.131,301.237 137.914,301.153 137.842 C 301.069 137.770,300.220 138.872,299.268 140.290 M296.432 144.339 C 295.779 145.560,295.914 145.900,296.641 144.863 C 296.993 144.360,297.188 143.854,297.073 143.740 C 296.959 143.625,296.670 143.895,296.432 144.339 M241.657 145.257 C 241.375 145.709,241.232 146.166,241.340 146.273 C 241.447 146.381,241.744 146.078,242.000 145.600 C 242.605 144.470,242.324 144.190,241.657 145.257 M236.681 152.500 C 234.630 155.277,229.611 162.840,229.963 162.623 C 230.167 162.497,231.278 161.000,232.432 159.297 C 233.585 157.594,235.326 155.075,236.300 153.700 C 238.104 151.152,238.428 150.134,236.681 152.500 M288.867 155.266 C 288.134 156.378,287.688 157.193,287.876 157.077 C 288.451 156.722,290.871 153.199,290.525 153.222 C 290.346 153.234,289.600 154.153,288.867 155.266 M284.436 161.900 C 283.452 163.338,283.392 163.508,284.188 162.600 C 285.246 161.392,286.153 160.000,285.882 160.000 C 285.801 160.000,285.151 160.855,284.436 161.900 M280.610 167.239 C 279.364 168.973,278.230 171.038,278.874 170.400 C 279.333 169.946,282.416 165.200,282.252 165.200 C 282.155 165.200,281.416 166.118,280.610 167.239 M224.469 170.039 C 223.710 171.254,224.166 171.416,224.955 170.212 C 225.320 169.656,225.478 169.200,225.305 169.200 C 225.133 169.200,224.757 169.578,224.469 170.039 M221.489 174.405 C 220.726 175.296,220.584 175.781,221.198 175.401 C 221.590 175.159,222.546 173.600,222.303 173.600 C 222.234 173.600,221.868 173.962,221.489 174.405 M218.744 178.326 C 218.391 178.917,216.801 181.290,215.211 183.600 C 213.620 185.910,212.672 187.440,213.104 187.000 C 214.158 185.925,219.742 177.608,219.543 177.409 C 219.456 177.323,219.096 177.735,218.744 178.326 M271.693 180.000 C 271.418 180.440,271.331 180.800,271.500 180.800 C 271.669 180.800,272.032 180.440,272.307 180.000 C 272.582 179.560,272.669 179.200,272.500 179.200 C 272.331 179.200,271.968 179.560,271.693 180.000 M268.487 184.800 C 267.124 186.780,266.142 188.398,266.305 188.397 C 266.564 188.393,267.261 187.396,270.539 182.340 C 272.234 179.727,270.778 181.471,268.487 184.800 M263.184 192.423 C 262.705 193.096,262.379 193.713,262.461 193.794 C 262.543 193.876,263.014 193.326,263.508 192.571 C 264.623 190.871,264.371 190.756,263.184 192.423 M261.045 195.388 C 260.680 195.944,260.522 196.400,260.695 196.400 C 261.084 196.400,262.119 194.786,261.882 194.549 C 261.786 194.453,261.410 194.831,261.045 195.388 M206.092 196.629 C 205.597 197.383,205.272 198.000,205.369 198.000 C 205.647 198.000,207.304 195.571,207.139 195.406 C 207.057 195.324,206.586 195.874,206.092 196.629 M115.384 198.427 C 115.239 198.661,115.228 198.961,115.360 199.093 C 115.492 199.225,115.600 199.123,115.600 198.867 C 115.600 198.147,116.743 198.312,118.138 199.233 L 119.400 200.066 118.200 199.035 C 116.938 197.951,115.826 197.711,115.384 198.427 M113.375 201.068 C 112.759 201.876,112.459 202.411,112.709 202.256 C 113.221 201.940,114.953 199.600,114.675 199.600 C 114.576 199.600,113.991 200.261,113.375 201.068 M121.318 201.800 C 122.327 202.570,123.279 203.200,123.434 203.200 C 123.588 203.200,122.890 202.570,121.882 201.800 C 120.873 201.030,119.921 200.400,119.766 200.400 C 119.612 200.400,120.310 201.030,121.318 201.800 M201.635 202.900 C 200.104 205.373,199.884 205.769,200.249 205.400 C 201.166 204.472,202.815 202.000,202.517 202.000 C 202.338 202.000,201.942 202.405,201.635 202.900 M252.472 207.875 C 251.082 209.966,250.002 211.731,250.072 211.796 C 250.254 211.965,255.325 204.392,255.147 204.217 C 255.066 204.137,253.862 205.783,252.472 207.875 M199.303 206.500 C 197.898 208.277,195.222 212.396,195.484 212.379 C 195.802 212.357,200.163 206.000,199.860 206.000 C 199.771 206.000,199.520 206.225,199.303 206.500 M131.200 209.325 C 131.200 209.424,131.861 210.009,132.668 210.625 C 133.476 211.241,134.011 211.541,133.856 211.291 C 133.540 210.779,131.200 209.047,131.200 209.325 M134.400 211.745 C 134.400 212.036,141.042 217.200,141.417 217.200 C 141.583 217.200,140.498 216.255,139.004 215.100 C 137.511 213.945,135.864 212.670,135.345 212.267 C 134.825 211.863,134.400 211.629,134.400 211.745 M102.328 215.238 C 100.938 217.019,99.130 219.305,98.312 220.317 C 97.493 221.329,96.922 222.255,97.042 222.375 C 97.162 222.495,97.416 222.325,97.608 221.997 C 97.959 221.395,99.792 218.977,103.323 214.460 C 104.381 213.107,105.159 212.000,105.052 212.000 C 104.944 212.000,103.719 213.457,102.328 215.238 M143.469 219.053 C 144.531 219.852,145.746 220.797,146.169 221.153 C 146.592 221.509,146.822 221.601,146.681 221.358 C 146.358 220.801,142.228 217.600,141.832 217.600 C 141.671 217.600,142.408 218.254,143.469 219.053 M244.744 219.100 C 243.452 220.660,243.119 221.200,243.451 221.195 C 243.643 221.192,244.207 220.562,244.704 219.795 C 245.672 218.301,245.692 217.956,244.744 219.100 M187.883 222.905 C 186.829 224.497,185.670 226.250,185.308 226.800 C 184.946 227.350,184.844 227.620,185.082 227.400 C 185.864 226.677,190.386 220.000,190.089 220.005 C 189.930 220.008,188.937 221.313,187.883 222.905 M183.453 229.300 L 182.733 230.600 183.558 229.600 C 184.289 228.713,184.614 228.000,184.286 228.000 C 184.224 228.000,183.849 228.585,183.453 229.300 M156.400 228.925 C 156.400 229.024,157.061 229.609,157.868 230.225 C 158.676 230.841,159.211 231.141,159.056 230.891 C 158.740 230.379,156.400 228.647,156.400 228.925 M234.083 234.423 C 232.278 237.076,230.964 239.146,231.162 239.024 C 231.708 238.686,237.824 229.600,237.505 229.600 C 237.427 229.600,235.887 231.770,234.083 234.423 M89.225 232.463 C 89.211 232.828,90.410 234.088,91.889 235.263 C 95.583 238.199,96.003 238.493,95.978 238.123 C 95.966 237.945,94.597 236.810,92.935 235.600 C 91.274 234.390,89.766 233.040,89.583 232.600 C 89.322 231.971,89.245 231.942,89.225 232.463 M161.600 232.933 C 161.600 233.043,162.320 233.703,163.200 234.400 C 164.080 235.097,164.800 235.577,164.800 235.467 C 164.800 235.357,164.080 234.697,163.200 234.000 C 162.320 233.303,161.600 232.823,161.600 232.933 M179.925 234.500 C 177.928 237.178,177.058 238.535,177.523 238.247 C 178.030 237.934,181.350 233.200,181.062 233.200 C 180.970 233.200,180.459 233.785,179.925 234.500 M96.544 238.709 C 96.860 239.221,99.200 240.953,99.200 240.675 C 99.200 240.576,98.539 239.991,97.732 239.375 C 96.924 238.759,96.389 238.459,96.544 238.709 M170.400 239.900 C 170.400 240.069,170.760 240.432,171.200 240.707 C 171.640 240.982,172.000 241.069,172.000 240.900 C 172.000 240.731,171.640 240.368,171.200 240.093 C 170.760 239.818,170.400 239.731,170.400 239.900 M107.869 247.709 C 109.960 249.391,110.614 249.705,109.000 248.252 C 108.120 247.460,107.251 246.809,107.069 246.806 C 106.887 246.803,107.247 247.209,107.869 247.709 M111.340 250.303 C 111.496 250.556,112.191 251.167,112.884 251.660 C 113.577 252.154,114.017 252.350,113.860 252.097 C 113.704 251.844,113.009 251.233,112.316 250.740 C 111.623 250.246,111.183 250.050,111.340 250.303 M220.298 254.300 C 217.901 257.625,216.319 260.052,216.461 260.185 C 216.538 260.255,217.816 258.533,219.302 256.357 C 222.072 252.299,222.751 250.897,220.298 254.300 M118.540 255.903 C 118.696 256.156,119.391 256.767,120.084 257.260 C 120.777 257.754,121.217 257.950,121.060 257.697 C 120.904 257.444,120.209 256.833,119.516 256.340 C 118.823 255.846,118.383 255.650,118.540 255.903 M215.081 261.839 C 214.686 262.368,214.508 262.800,214.685 262.800 C 215.034 262.800,216.138 261.201,215.928 261.000 C 215.857 260.933,215.477 261.311,215.081 261.839 M125.600 261.325 C 125.600 261.424,126.261 262.009,127.068 262.625 C 127.876 263.241,128.411 263.541,128.256 263.291 C 127.940 262.779,125.600 261.047,125.600 261.325 M213.406 264.288 L 212.704 265.400 213.630 264.511 C 214.139 264.022,214.455 263.522,214.332 263.399 C 214.209 263.276,213.792 263.676,213.406 264.288 M130.897 265.434 C 131.036 265.659,132.276 266.728,133.653 267.809 C 135.029 268.890,136.042 269.591,135.903 269.366 C 135.764 269.141,134.524 268.072,133.147 266.991 C 131.771 265.910,130.758 265.209,130.897 265.434 M136.400 269.725 C 136.400 269.824,137.061 270.409,137.868 271.025 C 138.676 271.641,139.211 271.941,139.056 271.691 C 138.740 271.179,136.400 269.447,136.400 269.725 M139.600 272.300 C 139.600 272.469,139.960 272.832,140.400 273.107 C 140.840 273.382,141.200 273.469,141.200 273.300 C 141.200 273.131,140.840 272.768,140.400 272.493 C 139.960 272.218,139.600 272.131,139.600 272.300 M143.821 275.784 C 144.450 276.325,145.044 276.690,145.139 276.594 C 145.356 276.377,143.532 274.831,143.038 274.813 C 142.839 274.806,143.191 275.243,143.821 275.784 M203.123 279.100 C 202.360 279.989,201.895 280.800,202.149 280.800 C 202.257 280.800,202.730 280.260,203.200 279.600 C 204.132 278.291,204.084 277.981,203.123 279.100 M150.932 281.090 C 151.066 281.306,152.216 282.274,153.488 283.241 C 154.759 284.207,155.890 285.097,156.000 285.218 C 156.110 285.338,157.370 286.298,158.800 287.349 C 160.230 288.401,160.770 288.698,160.000 288.010 C 158.052 286.269,150.635 280.609,150.932 281.090 M199.787 283.882 C 198.190 286.167,196.998 288.266,197.676 287.600 C 198.139 287.145,202.010 281.200,201.843 281.200 C 201.743 281.200,200.818 282.407,199.787 283.882 M192.093 294.800 C 191.818 295.240,191.731 295.600,191.900 295.600 C 192.069 295.600,192.432 295.240,192.707 294.800 C 192.982 294.360,193.069 294.000,192.900 294.000 C 192.731 294.000,192.368 294.360,192.093 294.800 M171.069 296.909 C 173.187 298.613,173.805 298.921,172.200 297.473 C 171.320 296.680,170.451 296.023,170.269 296.015 C 170.087 296.007,170.447 296.409,171.069 296.909 M190.645 296.988 C 190.280 297.544,190.122 298.000,190.295 298.000 C 190.684 298.000,191.719 296.386,191.482 296.149 C 191.386 296.053,191.010 296.431,190.645 296.988 M177.462 301.950 C 179.408 303.463,181.075 304.633,181.167 304.550 C 181.258 304.468,181.258 304.349,181.167 304.286 C 181.075 304.223,179.530 303.053,177.733 301.686 C 175.936 300.319,174.344 299.200,174.195 299.200 C 174.046 299.200,175.516 300.438,177.462 301.950 M185.407 304.626 C 184.809 305.411,184.382 306.116,184.460 306.193 C 184.537 306.270,185.107 305.628,185.726 304.767 C 187.134 302.808,186.879 302.696,185.407 304.626 M182.289 305.630 C 182.778 306.139,183.278 306.455,183.401 306.332 C 183.524 306.209,183.124 305.792,182.512 305.406 L 181.400 304.704 182.289 305.630 " stroke="none" fill="#5dccfc" fill-rule="evenodd"></path></g></svg>